<svg width="18" height="20" viewBox="0 0 18 20" fill="none" xmlns="http://www.w3.org/2000/svg">
<path d="M17.1206 15.8969C16.6784 14.8496 16.0368 13.8984 15.2315 13.0961C14.4286 12.2915 13.4775 11.65 12.4307 11.207C12.4213 11.2023 12.412 11.2 12.4026 11.1953C13.8627 10.1406 14.812 8.42266 14.812 6.48438C14.812 3.27344 12.2104 0.671875 8.99946 0.671875C5.78853 0.671875 3.18696 3.27344 3.18696 6.48438C3.18696 8.42266 4.13618 10.1406 5.59634 11.1977C5.58696 11.2023 5.57759 11.2047 5.56821 11.2094C4.51821 11.6523 3.57603 12.2875 2.76743 13.0984C1.96285 13.9013 1.32135 14.8524 0.87837 15.8992C0.443187 16.924 0.208484 18.0228 0.186964 19.1359C0.186338 19.161 0.190726 19.1858 0.199868 19.2091C0.20901 19.2324 0.222722 19.2537 0.240196 19.2716C0.257669 19.2895 0.278551 19.3037 0.301611 19.3134C0.32467 19.3231 0.349441 19.3281 0.374464 19.3281H1.78071C1.88384 19.3281 1.96587 19.2461 1.96821 19.1453C2.01509 17.3359 2.74165 15.6414 4.02603 14.357C5.35493 13.0281 7.11978 12.2969 8.99946 12.2969C10.8792 12.2969 12.644 13.0281 13.9729 14.357C15.2573 15.6414 15.9838 17.3359 16.0307 19.1453C16.0331 19.2484 16.1151 19.3281 16.2182 19.3281H17.6245C17.6495 19.3281 17.6743 19.3231 17.6973 19.3134C17.7204 19.3037 17.7413 19.2895 17.7587 19.2716C17.7762 19.2537 17.7899 19.2324 17.7991 19.2091C17.8082 19.1858 17.8126 19.161 17.812 19.1359C17.7885 18.0156 17.5565 16.9258 17.1206 15.8969ZM8.99946 10.5156C7.92368 10.5156 6.91118 10.0961 6.14946 9.33438C5.38774 8.57266 4.96821 7.56016 4.96821 6.48438C4.96821 5.40859 5.38774 4.39609 6.14946 3.63437C6.91118 2.87266 7.92368 2.45312 8.99946 2.45312C10.0752 2.45312 11.0877 2.87266 11.8495 3.63437C12.6112 4.39609 13.0307 5.40859 13.0307 6.48438C13.0307 7.56016 12.6112 8.57266 11.8495 9.33438C11.0877 10.0961 10.0752 10.5156 8.99946 10.5156Z" fill="current"/>
</svg>
