<svg width="19" height="18" viewBox="0 0 19 18" fill="none" xmlns="http://www.w3.org/2000/svg">
<path fill-rule="evenodd" clip-rule="evenodd" d="M15.4932 10.5C14.6647 10.5 13.9932 9.82843 13.9932 9C13.9932 8.17157 14.6647 7.5 15.4932 7.5C16.3216 7.5 16.9932 8.17157 16.9932 9C16.9932 9.82843 16.3216 10.5 15.4932 10.5ZM9.49316 10.5C8.66474 10.5 7.99316 9.82843 7.99316 9C7.99316 8.17157 8.66474 7.5 9.49316 7.5C10.3216 7.5 10.9932 8.17157 10.9932 9C10.9932 9.82843 10.3216 10.5 9.49316 10.5ZM1.99316 9C1.99316 9.82843 2.66474 10.5 3.49316 10.5C4.32159 10.5 4.99316 9.82843 4.99316 9C4.99316 8.17157 4.32159 7.5 3.49316 7.5C2.66474 7.5 1.99316 8.17157 1.99316 9Z" fill="current"/>
</svg>
