<svg width="30" height="24" viewBox="0 0 30 24" fill="none" xmlns="http://www.w3.org/2000/svg">
<path d="M26.4844 3.75H3.51562C3.38672 3.75 3.28125 3.83437 3.28125 3.9375V5.4375C3.28125 5.54062 3.38672 5.625 3.51562 5.625H26.4844C26.6133 5.625 26.7188 5.54062 26.7188 5.4375V3.9375C26.7188 3.83437 26.6133 3.75 26.4844 3.75ZM26.4844 18.375H3.51562C3.38672 18.375 3.28125 18.4594 3.28125 18.5625V20.0625C3.28125 20.1656 3.38672 20.25 3.51562 20.25H26.4844C26.6133 20.25 26.7188 20.1656 26.7188 20.0625V18.5625C26.7188 18.4594 26.6133 18.375 26.4844 18.375ZM26.4844 11.0625H3.51562C3.38672 11.0625 3.28125 11.1469 3.28125 11.25V12.75C3.28125 12.8531 3.38672 12.9375 3.51562 12.9375H26.4844C26.6133 12.9375 26.7188 12.8531 26.7188 12.75V11.25C26.7188 11.1469 26.6133 11.0625 26.4844 11.0625Z" fill="#262626"/>
</svg>
